<?xml version="1.0" encoding="UTF-8"?> <svg xmlns="http://www.w3.org/2000/svg" id="a" viewBox="0 0 300 28.58"><defs><style>.b{fill:#fff;}.c{fill:#15126f;}</style></defs><g><g><path class="c" d="M0,14.29C0,6.4,6.4,0,14.29,0s14.29,6.4,14.29,14.29-6.4,14.29-14.29,14.29S0,22.18,0,14.29Z"></path><path class="b" d="M13.93,9.37c-.47,.51-1.34,1.44-2.06,2.01-.45,.39-.94,.72-1.47,1.22-.71,.71-1.14,1.67-1.14,2.76,0,.41,.06,.8,.18,1.17,.33,.93,1.09,1.69,2.15,1.99,.38,.12,.71,.23,1.19,.43,.85,.34,1.97,1.4,2.26,2.65,.02,.15,.06,.47,.03,.85-.13,1.41-1.32,2.58-2.86,2.58-.75,0-1.47-.3-2.01-.82-.25-.25-.39-.61-.38-1.04-.01-.74,.65-1.41,1.43-1.41,.12,0,.25,.01,.36,.04,.31,.09,.55,.38,.55,.72,0,.41-.34,.75-.75,.75s-.75-.34-.75-.75c-.22,.17-.37,.43-.37,.73,0,.21,.07,.41,.18,.57,.17,.23,.42,.41,.71,.49,.2,.06,.41,.09,.63,.09,1.17,0,2.11-.94,2.11-2.11,0-.82-.47-1.53-1.15-1.88-.45-.23-.97-.36-1.51-.36-1.83,0-3.31,1.48-3.31,3.31,0,1.12,.55,2.11,1.4,2.71,.91,.66,2.03,1.06,3.24,1.06,3.03,0,5.49-2.46,5.49-5.49,0-.69-.13-1.34-.36-1.94-.02-.04-.02-.08-.02-.12,0-.16,.13-.3,.29-.3,.04,0,.08-.01,.12,0,.86,.36,1.63,.88,2.28,1.53v-.59c0-.58,.46-1.04,1.04-1.04h.2c-.13-.18-.2-.41-.2-.66,0-.62,.46-1.14,1.05-1.23-.27-.24-.44-.58-.44-.97,0-.58,.37-1.09,.88-1.26-.42-.26-.71-.73-.71-1.27,0-.49,.23-.92,.6-1.19-.58-.14-1.02-.64-1.02-1.26,0-.35,.13-.66,.36-.89h-.14c-.48,0-.87-.38-.87-.86v-.92c-.71,.52-1.47,.97-2.28,1.34-.06,.03-.11,.03-.18,.03-.15,0-.29-.08-.37-.2-.1-.16-.16-.35-.16-.55,0-.29,.11-.54,.3-.73-.38-.13-.64-.49-.64-.91,0-.3,.16-.57,.37-.75-.48,0-.87-.39-.87-.87,0-.3,.15-.57,.39-.72h-.25c-.38,0-.7-.29-.76-.65h-4.53l-.4,.84c-.12,.26-.39,.46-.67,.52-.88,.18-1.79,.27-2.72,.27-.31,0-.61-.01-.92-.03-.57-.03-1.03-.57-1-1.2-.23,.23-.47,.54-.63,.83-.05,.09-.11,.16-.2,.22,.12,.72,.79,1.26,1.5,1.28l3.92-.2,.09,.05c.43,.87,1.32,1.46,2.35,1.46,.14,0,.29-.01,.43-.04l.05,.75Z"></path><path class="c" d="M14.43,8.63l1.05-.56c.38-.09,.62,.33,.64,.74,.02,.41-.1,.75-.49,.7l-1.17-.32c.08-.07,.06-.5-.03-.57Z"></path><path class="b" d="M16.66,4.18l.19-1.95c.25-.01,.44-.22,.44-.48s-.21-.48-.48-.48-.48,.21-.48,.48c0,.17,.1,.33,.24,.42l-.78,.97c-.08,.09-.2,.15-.33,.15-.18,0-.33-.11-.4-.26l-.53-1.12c.19-.07,.32-.25,.32-.45,0-.26-.21-.48-.48-.48s-.49,.22-.49,.48c0,.21,.13,.39,.32,.45l-.52,1.12c-.07,.15-.22,.26-.4,.26-.13,0-.24-.06-.32-.15l-.78-.97c.14-.08,.24-.24,.24-.42,0-.26-.21-.48-.48-.48s-.48,.21-.48,.48,.19,.46,.44,.48l.19,1.95h4.54Z"></path><path class="c" d="M20.7,9.65c-.61,.34-1.26,.64-1.94,.89-.17,.07-.3,.22-.3,.39,0,.23,.22,.42,.49,.42,.06,0,.12,0,.18-.03h.02l2.04-.67c-.3-.18-.49-.47-.49-.8v-.2Z"></path><path class="c" d="M19.29,12.88s-.05,0-.08,0c-.32,0-.59-.23-.59-.52,0-.22,.16-.41,.38-.48h.03l2.28-.77c-.04,.12-.05,.25-.05,.38,0,.42,.21,.79,.54,1.05l-2.51,.33Z"></path><path class="c" d="M22.01,14.67c-.2-.25-.31-.54-.31-.87,0-.27,.08-.52,.22-.74l-2.52,.34c-.31,.04-.54,.27-.54,.55,0,.31,.29,.56,.65,.56l2.51,.15Z"></path><path class="c" d="M19.18,16.05c-.23-.07-.4-.28-.4-.52,0-.3,.26-.55,.59-.55l2.63,.18c-.26,.26-.43,.62-.43,1.01,0,.19,.04,.37,.11,.53l-2.5-.65Z"></path><path class="c" d="M18.91,17.39c-.17-.07-.28-.21-.28-.36,0-.23,.23-.41,.53-.41,.06,0,.11,0,.16,.02l2.24,.55c-.37,.21-.53,.52-.53,.91,0,.04,0,.1,.01,.14l-2.13-.84Z"></path><path class="c" d="M20.8,18.8c-.41,.17-.7,.5-.76,.89-.49-.33-1-.59-1.58-.81-.2-.07-.34-.25-.34-.44,0-.26,.26-.48,.57-.48,.09,0,.17,.02,.24,.04l1.86,.79Z"></path><path class="c" d="M14.25,9.63c-.68,.79-1.18,1.32-2.13,2.09-.5,.42-.88,.72-1.4,1.18-.63,.56-1.04,1.44-1.04,2.4,0,.18,.02,.39,.05,.57,.17,1.12,.94,1.95,1.92,2.26,.56,.13,.98,.27,1.47,.51,1.07,.54,2.12,1.69,2.33,2.65,.05,.24,.13,.78,.13,1.03,0,1.64-1.52,3.13-3.36,3.14-.87,0-1.79-.41-2.36-.98-.3-.32-.48-.86-.46-1.39,0-.92,.88-1.68,1.86-1.68,.13,0,.25-.06,.37-.03,.49,.11,.96,.63,.96,1.15,0,.6-.57,1.18-1.18,1.18-.3,0-.5-.07-.7-.26,0,.14,0,.12,.09,.22,.11,.14,.25,.23,.42,.29,.19,.07,.35,.06,.55,.06,.97,0,1.71-.75,1.71-1.72,0-.61-.32-1.09-.79-1.4-.44-.26-.88-.41-1.43-.41-1.64,.11-2.86,1.24-2.86,2.88,.22,1.52,.98,2.18,2.03,2.7,.49,.32,1.26,.36,1.46,.37,1.42,0,2.7-.61,3.59-1.57,.57-.65,.94-1.52,.94-2.45,0-1.16-.54-2.19-1.37-2.86-.44-.33-.88-.71-1.29-1.08-.71-.64-1.05-1.56-1.05-2.59,0-1.48,.77-2.92,1.62-3.76,.58-.53,.86-1.16,.86-1.92,0-.22-.03-.44-.08-.57l-.52-.14-.32,.15Z"></path><path class="b" d="M15.12,10.77c-.17,.03-.34,.04-.52,.04-.33,0-.64-.04-.95-.12-.13-.04-.25-.12-.33-.23l-.24,.25c.11,.14,.27,.25,.45,.3,.34,.09,.7,.14,1.07,.14,.14,0,.27,0,.4-.02h.07l.12-.36h-.08Z"></path><path class="b" d="M12.34,12.38c-.27-.07-.5-.24-.64-.48l.27-.23c.09,.17,.24,.31,.43,.36h.03c.45,.11,.92,.17,1.4,.17,.14,0,.28,0,.42-.02l.09,.03-.33,.35h-.18c-.51-.01-1.01-.07-1.48-.19h0Z"></path><path class="b" d="M13.2,13.73c-.07,0-.14,0-.22,0-.66,0-1.27-.14-1.84-.38-.22-.1-.39-.3-.44-.55l-.02-.05-.27,.24,.02,.08c.1,.25,.27,.42,.52,.57,.62,.27,1.31,.43,2.04,.43h.07l.07,.02,.13-.36h-.05Z"></path><path class="b" d="M12.75,15.19c-.26,.04-.53,.06-.8,.06-.6,0-1.17-.1-1.7-.29-.22-.1-.4-.25-.53-.45l-.07-.04-.09,.41,.08,.08c.12,.12,.26,.23,.42,.3,.59,.21,1.23,.33,1.9,.33,.26,0,.51-.01,.76-.05h.09l.05-.35h-.09Z"></path><path class="b" d="M12.78,16.68c-.42,.18-.89,.28-1.37,.28-.57,0-1.11-.14-1.58-.38l.16,.49h.1c.41,.16,.85,.24,1.32,.24,.52,0,1.01-.1,1.46-.29h.03l-.09-.36-.03,.02Z"></path><path class="b" d="M13.39,18.06c-.25,.22-.57,.36-.93,.36-.03,0-.06,0-.09,0l.64,.27c.23-.08,.44-.2,.62-.36l.07-.05-.28-.26-.02,.05Z"></path><path class="b" d="M14.45,19l.28,.21-.04,.06c-.11,.14-.25,.26-.41,.35l-.27-.25c.16-.07,.3-.18,.41-.32l.04-.05Z"></path><path class="b" d="M15.7,20.11l.22,.31-.07,.03c-.23,.13-.49,.21-.77,.23h-.03l-.2-.33h.06c.26-.01,.51-.08,.72-.19l.06-.05Z"></path><path class="b" d="M16.33,21.4l.1,.32-.07,.04c-.25,.11-.53,.18-.81,.18-.04,0-.08,0-.11,0h-.07v-.35h.02c.06,0,.11,0,.17,0,.26,0,.51-.06,.73-.18h.04Z"></path><path class="b" d="M16.4,22.86c-.19,.07-.4,.11-.61,.11-.15,0-.3-.02-.43-.05h-.04l-.11,.31h.06c.18,.06,.36,.09,.55,.09,.17,0,.33-.02,.49-.05l.1-.04v-.36Z"></path><path class="b" d="M15.95,24.37l-.27,.33-.1-.02c-.36-.07-.68-.2-.98-.39l.22-.27c.29,.19,.62,.31,.98,.35h.14Z"></path><path class="b" d="M14.54,25.69l-.35,.22-.06-.04c-.27-.18-.46-.47-.54-.8l-.03-.08,.35-.16v.06c.04,.35,.26,.64,.57,.78l.05,.03Z"></path><path class="b" d="M13.01,26.36l-.41,.06-.04-.05c-.21-.27-.33-.6-.33-.97v-.08l.35-.05v.07s0,.04,0,.06c0,.35,.15,.67,.39,.89l.04,.06Z"></path><path class="b" d="M11.31,26.45l-.4-.08-.02-.06c-.05-.16-.07-.32-.07-.5,0-.24,.05-.48,.14-.69l.03-.07,.32,.11-.02,.08c-.08,.18-.12,.37-.12,.57s.04,.4,.12,.57l.02,.07Z"></path><path class="b" d="M9.99,24.39l.24,.23-.03,.05c-.39,.21-.66,.6-.72,1.05l-.02,.1-.3-.27v-.08c.12-.44,.39-.81,.76-1.05l.06-.04Z"></path><path class="b" d="M8.35,23.88c.22-.25,.55-.41,.91-.41,.08,0,.16,0,.24,.02h.06l.12,.39h-.06c-.11-.04-.23-.07-.36-.07-.34,0-.64,.2-.78,.49l-.06,.11-.11-.53h.05Z"></path><path class="b" d="M8.47,22.3c.14-.05,.29-.08,.45-.08,.26,0,.51,.08,.71,.23l.04,.05-.09,.36-.06-.05c-.16-.15-.36-.24-.59-.24s-.42,.08-.57,.21l.04-.44,.08-.04Z"></path><path class="b" d="M10.35,21.75l-.29,.25-.05-.07c-.06-.37-.38-.65-.77-.65-.04,0-.07,0-.1,0l-.04-.05,.34-.31,.09,.04c.37,.09,.67,.37,.79,.73l.04,.06Z"></path><path class="b" d="M11.03,21.43v-.07c0-.39-.23-.73-.57-.87v-.06l.5-.1v.06c.25,.24,.42,.59,.42,.97v.07h-.35Z"></path><path class="b" d="M11.95,21.57c.23-.14,.39-.39,.39-.68,0-.12-.03-.22-.07-.32v-.08l.44,.2-.03,.05s.01,.1,.01,.15c0,.37-.18,.71-.46,.91l-.28-.23Z"></path><path class="b" d="M12.43,22.11c.08,.03,.18,.06,.27,.06,.39,0,.7-.31,.7-.7h0l.2,.55-.04,.06c-.19,.27-.5,.44-.86,.44-.06,0-.13,0-.19-.02h-.07v-.38Z"></path><path class="b" d="M12.44,22.9c.1,.2,.31,.34,.55,.34,.15,0,.28-.06,.38-.14l.06,.02-.32,.48h-.13c-.31,0-.58-.15-.75-.38l.17-.34,.04,.02Z"></path><path class="b" d="M13.7,8.89c0-.43,.31-.78,.68-.78s.69,.35,.69,.78-.31,.78-.69,.78-.68-.35-.68-.78Z"></path><path class="c" d="M14.01,8.89c0-.23,.17-.42,.37-.42s.37,.19,.37,.42-.16,.42-.37,.42-.37-.19-.37-.42Z"></path><path class="c" d="M14.01,8.89c0-.23,.17-.42,.37-.42s.37,.19,.37,.42-.16,.42-.37,.42-.37-.19-.37-.42Z"></path><path class="c" d="M12.08,5.92c0-.5,.41-.91,.91-.91s.92,.41,.92,.91-.41,.92-.92,.92-.91-.41-.91-.92Z"></path><path class="b" d="M12.26,5.92c0-.41,.33-.74,.74-.74s.74,.33,.74,.74-.33,.74-.74,.74-.74-.33-.74-.74Z"></path><path class="c" d="M12.81,5.98c0-.3,.24-.54,.54-.54s.54,.24,.54,.54-.24,.54-.54,.54-.54-.24-.54-.54Z"></path><path class="c" d="M11.87,7.07c.12,0,.05-.07,.3-.07,.2,0,.4,.19,.61,.4,.16,.16,.53,.2,.83,.2-.02,.14-.42,.33-.59,.33-.73,0-.89-.73-1.16-.87Z"></path></g><g><path class="b" d="M20.48,22.17v.28h-.8v2.08h-.32v-2.08h-.8v-.28h1.92Z"></path><path class="b" d="M20.77,22.17h.46l.68,2,.68-2h.46v2.37h-.31v-1.4s0-.13,0-.24c0-.11,0-.23,0-.36l-.68,1.99h-.32l-.68-1.99v.07c0,.06,0,.15,0,.27,0,.12,0,.21,0,.26v1.4h-.31v-2.37Z"></path></g></g><g><path class="c" d="M33.38,9.01v-.59l2.51,.06,2.31-.06v.59c-.65,.01-1.04,.04-1.18,.1-.14,.05-.24,.12-.29,.21-.07,.12-.11,.42-.12,.89,0,.12-.02,.99-.04,2.6v1.28c1.08,.04,2.39,.06,3.94,.06,1.19,0,2.13-.02,2.85-.06v-1.28c0-.83-.01-1.64-.03-2.44-.02-.58-.06-.93-.12-1.03-.06-.11-.16-.19-.3-.24-.14-.05-.54-.08-1.19-.1v-.59c1.18,.04,1.99,.06,2.43,.06,.16,0,.97-.02,2.41-.06v.59c-.64,.01-1.04,.04-1.18,.1-.14,.05-.24,.12-.29,.21-.07,.12-.11,.42-.13,.89,0,.12-.02,.99-.04,2.6v4.24c0,.83,.01,1.64,.04,2.43,.01,.58,.05,.92,.11,1.03,.06,.11,.16,.19,.31,.24,.14,.05,.53,.08,1.18,.1v.59c-1.06-.04-1.93-.06-2.6-.06-.72,0-1.46,.02-2.23,.06v-.59c.66-.01,1.05-.04,1.2-.1,.14-.05,.24-.12,.29-.21,.07-.12,.11-.42,.12-.89,0-.13,.02-1,.03-2.6v-2.09c-1.53-.04-2.69-.06-3.48-.06-.86,0-1.96,.02-3.3,.06v2.09c0,.83,.01,1.64,.04,2.42,.01,.58,.05,.93,.12,1.04,.06,.11,.16,.19,.3,.24,.14,.05,.53,.08,1.18,.1v.59c-.74-.04-1.5-.06-2.28-.06-.85,0-1.7,.02-2.54,.06v-.59c.64-.01,1.03-.04,1.18-.1,.14-.05,.24-.12,.3-.21,.06-.12,.11-.42,.12-.89,0-.13,.02-.99,.04-2.6v-4.24c0-.83-.01-1.64-.04-2.44-.02-.58-.06-.92-.12-1.03-.06-.11-.16-.19-.3-.24-.14-.05-.53-.08-1.17-.1Z"></path><path class="c" d="M47.38,15.01c0-.96,.13-1.86,.39-2.67,.26-.82,.69-1.55,1.29-2.21,.6-.66,1.28-1.15,2.05-1.48,.76-.33,1.63-.5,2.61-.5,.9,0,1.72,.14,2.46,.43,.74,.29,1.35,.66,1.82,1.13,.47,.47,.85,.98,1.12,1.53,.21,.42,.37,.91,.5,1.47,.12,.56,.18,1.16,.18,1.8,0,2.06-.62,3.77-1.86,5.14-1.24,1.37-2.8,2.05-4.69,2.05-.86,0-1.66-.16-2.41-.47-.74-.31-1.37-.77-1.89-1.39-.51-.61-.91-1.36-1.17-2.24-.27-.88-.4-1.74-.4-2.6m1.72-.76c0,.58,.05,1.17,.16,1.77,.1,.6,.24,1.11,.39,1.55,.26,.73,.61,1.35,1.03,1.84,.42,.5,.9,.86,1.42,1.1,.52,.23,1.1,.35,1.74,.35,.88,0,1.65-.24,2.3-.72,.65-.48,1.14-1.15,1.46-2.02,.32-.87,.48-1.87,.48-3.01,0-.97-.11-1.86-.34-2.68-.14-.5-.33-.95-.57-1.36-.23-.41-.51-.76-.84-1.06-.33-.3-.75-.56-1.27-.76-.52-.21-1.08-.31-1.68-.31-.87,0-1.63,.22-2.29,.65-.66,.43-1.15,1.06-1.48,1.88-.33,.82-.5,1.75-.5,2.79Z"></path><path class="c" d="M60.68,21.44v-.59c.58,0,.96-.05,1.14-.15,.08-.04,.13-.1,.17-.18,.05-.12,.09-.44,.12-.96,.02-.81,.03-1.5,.03-2.09v-7.45c0-.2-.01-.33-.03-.39-.04-.11-.14-.24-.29-.39-.1-.1-.21-.16-.34-.19-.13-.03-.41-.05-.86-.05v-.59c.95,.03,1.54,.04,1.78,.04,.41,0,.82-.01,1.23-.04,.46,.68,.8,1.18,1.01,1.5l1.68,2.33,2.45,3.33c.79,1.06,1.42,1.9,1.89,2.51,.3,.4,.56,.72,.76,.95v-6.68c0-.6-.01-1.3-.04-2.1-.02-.5-.06-.82-.11-.94-.04-.08-.1-.14-.17-.17-.18-.09-.56-.13-1.14-.14v-.59c.65,.03,1.3,.04,1.96,.04,.62,0,1.19-.01,1.7-.04v.59c-.57,0-.96,.05-1.14,.14-.08,.04-.13,.1-.17,.18-.06,.12-.09,.44-.12,.96-.02,.8-.03,1.5-.03,2.08v4.4c0,.89,.01,2.55,.03,4.99l-.85-.27-.2-.04s-.06-.03-.09-.06c-.04-.03-.14-.15-.31-.37-.46-.58-.79-1.02-1-1.32l-1.06-1.51-5.83-7.85v7.11c0,.61,.01,1.32,.04,2.14,.02,.51,.06,.83,.11,.95,.04,.09,.1,.15,.18,.19,.18,.09,.56,.13,1.14,.14v.59c-.48-.04-1.01-.06-1.58-.06-.63,0-1.32,.02-2.06,.06Z"></path><path class="c" d="M74.94,21.44v-.44c.31-.2,.58-.39,.79-.55,.03-.41,.06-.99,.08-1.73,.04-1.26,.06-2.13,.06-2.62v-3.73c0-.6-.01-1.3-.03-2.1-.02-.51-.06-.82-.12-.94-.04-.08-.1-.14-.17-.17-.18-.09-.56-.13-1.13-.14v-.59c.8,.03,1.5,.04,2.12,.04,.47,0,1.11,0,1.92-.03,.81-.02,1.44-.03,1.89-.03,1.34,0,2.42,.19,3.23,.57,.81,.38,1.51,1.02,2.07,1.92,.57,.9,.85,1.99,.85,3.29,0,.93-.13,1.8-.4,2.61-.27,.81-.63,1.52-1.09,2.13-.46,.61-.95,1.09-1.48,1.44-.53,.35-1.08,.62-1.65,.8-.58,.18-1.37,.27-2.38,.27-.33,0-.78,0-1.35-.03-.74-.02-1.23-.03-1.46-.03-.33,0-.92,.02-1.75,.06m2.54-1c.6,.12,1.23,.18,1.9,.18s1.3-.07,1.82-.2c.53-.13,.98-.32,1.35-.57,.37-.24,.74-.6,1.09-1.08,.35-.48,.62-1.09,.81-1.83,.19-.74,.28-1.51,.28-2.3,0-1.14-.18-2.11-.55-2.93-.36-.82-.91-1.44-1.64-1.87-.73-.44-1.74-.65-3.02-.65-.67,0-1.36,.06-2.05,.18-.02,.3-.03,.83-.04,1.59l-.03,1.33v3.66l.02,2.84c0,.43,.02,.99,.05,1.67Z"></path><path class="c" d="M87.49,21.44v-.62c.43,0,.7-.03,.81-.06,.11-.03,.21-.1,.3-.19,.09-.09,.22-.34,.39-.74,.1-.23,.46-1.08,1.07-2.58l2.06-5.17c.22-.57,.7-1.83,1.44-3.8h.53l3.51,9.2c.57,1.49,.95,2.43,1.13,2.81,.1,.21,.22,.35,.34,.42,.12,.07,.4,.1,.83,.11v.62c-.86-.06-1.45-.1-1.79-.1l-2.65,.1v-.62c.61-.01,.99-.03,1.12-.06,.13-.03,.22-.07,.27-.13,.05-.06,.07-.13,.07-.22,0-.13-.04-.31-.11-.52l-1.01-2.8h-4.76l-.88,2.35c-.16,.42-.24,.73-.24,.93,0,.09,.02,.16,.07,.21,.06,.08,.15,.13,.28,.16,.2,.05,.56,.08,1.07,.08v.62c-.93-.04-1.62-.06-2.09-.06-.53,0-1.12,.02-1.75,.06m3.82-5.12h4.16l-2.05-5.54-2.1,5.54Z"></path><path class="c" d="M105.07,21.44v-.59c.57,0,.94-.05,1.12-.15,.07-.04,.13-.09,.16-.17,.05-.12,.09-.44,.12-.96,.04-.81,.05-1.5,.05-2.09v-4.68c0-.83-.01-1.64-.03-2.44-.02-.58-.06-.92-.12-1.03-.06-.11-.16-.19-.3-.24-.14-.05-.53-.08-1.18-.1v-.59l2.34,.06,2.48-.05c1.19-.02,2.05-.03,2.58-.03s1.05,.04,1.54,.1c-.09,.35-.15,.65-.18,.91-.01,.06-.06,.69-.15,1.92h-.52c0-.63-.03-1.2-.11-1.72-.3-.14-.63-.24-.99-.29-.61-.09-1.22-.13-1.83-.13-.13,0-.42,.01-.88,.04-.45,.02-.78,.04-.97,.06-.02,.68-.04,1.32-.05,1.91l-.04,3.11c.64,.04,1.23,.06,1.77,.06,.65,0,1.21-.03,1.67-.1,.18-.02,.29-.07,.34-.15,.05-.07,.09-.32,.13-.75l.05-.64h.49v.17l-.04,1.89,.04,2.13h-.58l-.02-.62c-.01-.45-.05-.73-.11-.84-.06-.11-.18-.19-.36-.23-.31-.07-.92-.11-1.82-.11-.37,0-.89,.02-1.56,.06-.03,.61-.04,1.51-.04,2.71,0,1.13,.01,1.98,.04,2.57,.79,.06,1.67,.1,2.66,.1,.7,0,1.19-.02,1.49-.07,.3-.05,.57-.13,.82-.24,.07-.19,.13-.44,.2-.77,.12-.54,.2-.95,.24-1.22h.54c-.14,1.23-.21,2.25-.21,3.06-.47,.08-1.04,.12-1.71,.12l-4.9-.06c-.07,0-.79,.02-2.15,.06Z"></path><path class="c" d="M115.82,21.44v-.47c.34-.18,.55-.32,.65-.42,.05-.05,.09-.12,.11-.21,.05-.17,.08-.54,.1-1.1,.02-.84,.03-1.34,.03-1.49v-4.93c0-.83-.01-1.64-.03-2.44-.02-.58-.06-.92-.12-1.03-.06-.11-.16-.19-.3-.24-.14-.05-.53-.08-1.18-.1v-.59c1.33,.04,2.16,.06,2.47,.06,.35,0,1.13-.02,2.35-.06v.59c-.65,.01-1.05,.04-1.19,.1-.14,.05-.23,.12-.29,.21-.07,.12-.11,.42-.12,.89,0,.12-.02,.99-.04,2.6v6.16c0,.64,.01,1.16,.04,1.57,.63,.04,1.24,.06,1.86,.06,1.55,0,2.63-.11,3.25-.33,.07-.18,.13-.39,.19-.63l.33-1.52h.54c-.12,.91-.24,1.98-.35,3.21-.22,.05-.4,.08-.53,.09-.28,.02-.72,.03-1.31,.03l-4.86-.06c-.52,0-1.06,.02-1.6,.06Z"></path><path class="c" d="M125.63,21.44v-.59c.57,0,.94-.05,1.12-.15,.07-.04,.13-.09,.16-.17,.05-.12,.09-.44,.12-.96,.03-.81,.05-1.5,.05-2.09v-4.68c0-.83-.01-1.64-.04-2.44-.02-.58-.06-.92-.12-1.03-.06-.11-.16-.19-.3-.24-.14-.05-.53-.08-1.18-.1v-.59l2.34,.06,2.48-.05c1.19-.02,2.05-.03,2.58-.03s1.05,.04,1.54,.1c-.09,.35-.15,.65-.18,.91-.01,.06-.06,.69-.15,1.92h-.53c0-.63-.03-1.2-.11-1.72-.3-.14-.63-.24-.99-.29-.61-.09-1.22-.13-1.84-.13-.13,0-.42,.01-.88,.04-.45,.02-.78,.04-.97,.06-.02,.68-.04,1.32-.05,1.91l-.04,3.11c.64,.04,1.23,.06,1.77,.06,.65,0,1.21-.03,1.67-.1,.18-.02,.29-.07,.34-.15,.05-.07,.09-.32,.13-.75l.05-.64h.49v.17l-.03,1.89,.03,2.13h-.58l-.02-.62c-.01-.45-.05-.73-.11-.84-.06-.11-.18-.19-.36-.23-.31-.07-.92-.11-1.82-.11-.37,0-.89,.02-1.56,.06-.03,.61-.04,1.51-.04,2.71,0,1.13,.01,1.98,.04,2.57,.79,.06,1.67,.1,2.65,.1,.69,0,1.19-.02,1.49-.07,.29-.05,.57-.13,.82-.24,.07-.19,.13-.44,.2-.77,.12-.54,.2-.95,.24-1.22h.54c-.14,1.23-.21,2.25-.21,3.06-.47,.08-1.04,.12-1.71,.12l-4.9-.06c-.07,0-.79,.02-2.15,.06Z"></path><path class="c" d="M146.79,19.82l-.32,.85c-.64,.36-1.27,.62-1.88,.78-.61,.16-1.28,.24-2.01,.24-.85,0-1.64-.12-2.37-.36-.73-.24-1.37-.58-1.91-1.02-.54-.44-.99-.94-1.33-1.49-.35-.55-.61-1.15-.79-1.79-.18-.64-.27-1.35-.27-2.12,0-1.95,.61-3.56,1.83-4.84,1.22-1.28,2.89-1.92,4.99-1.92,.5,0,.96,.03,1.38,.1,.43,.06,.94,.19,1.55,.37,.61,.18,.99,.29,1.12,.32-.12,.34-.21,.67-.27,.99-.09,.52-.15,1.12-.18,1.81h-.51v-1.08c-.06-.6-.36-1.04-.9-1.34-.54-.29-1.33-.44-2.37-.44-.78,.01-1.44,.12-1.98,.33-.54,.21-1.02,.54-1.44,1-.41,.45-.75,1.03-1.02,1.73-.26,.7-.4,1.58-.4,2.63,0,1.85,.51,3.34,1.52,4.46,1.01,1.13,2.35,1.69,4.02,1.69,.75,0,1.45-.12,2.09-.34,.44-.16,.87-.41,1.31-.75l.14,.19Z"></path><path class="c" d="M148.18,11.45h-.53c0-1.46-.04-2.47-.09-3.03,.6,.03,1.54,.07,2.82,.11,1.04,.03,1.73,.04,2.08,.04,.37,0,1.24-.02,2.6-.07,.98-.03,1.7-.06,2.15-.09-.07,.68-.12,1.7-.14,3.03h-.53l-.07-.88c-.05-.53-.07-.83-.09-.91-.02-.07-.04-.12-.07-.15-.03-.03-.07-.06-.14-.07-.08-.02-.35-.04-.82-.07-.47-.03-.85-.04-1.12-.04h-1.01c-.06,.59-.09,1.38-.09,2.37v5.36c0,.83,.01,1.64,.03,2.43,.02,.58,.06,.92,.12,1.03,.06,.11,.16,.19,.3,.24,.14,.05,.53,.08,1.18,.1v.59c-.98-.05-1.72-.08-2.21-.08-.21,0-1.07,.03-2.56,.08v-.59c.65-.01,1.05-.04,1.19-.1,.14-.05,.24-.12,.29-.21,.07-.12,.12-.42,.13-.89,0-.13,.01-.99,.04-2.6v-5.34c0-.26,0-.54-.02-.84l-.05-1.55h-1.22c-.7,0-1.26,.03-1.67,.09-.13,.02-.22,.06-.25,.12-.06,.1-.12,.44-.16,1l-.09,.93Z"></path><path class="c" d="M157.93,9.01v-.59c.21,0,.54,.01,.98,.02l1.58,.04c.31,0,.8-.01,1.45-.03,.86-.03,1.35-.05,1.49-.05,1.05,0,1.81,.1,2.29,.31,.48,.21,.85,.54,1.11,1.01,.26,.47,.39,.97,.39,1.52,0,.51-.12,1.02-.37,1.53-.25,.51-.61,.93-1.08,1.26-.47,.34-1.08,.59-1.83,.78,.14,.21,.46,.69,.97,1.43l2.07,3.05c.59,.85,.94,1.32,1.04,1.42,.05,.04,.1,.07,.15,.09,.08,.03,.26,.05,.54,.05v.59c-.41-.04-.78-.06-1.09-.06s-.72,.02-1.18,.06c-.36-.46-.96-1.35-1.8-2.69-.47-.74-.88-1.36-1.24-1.85-.58-.82-1.13-1.56-1.65-2.23l.08-.28c.29,.02,.5,.03,.65,.03,1,0,1.76-.26,2.28-.79,.51-.52,.77-1.22,.77-2.08,0-.75-.22-1.35-.67-1.79-.44-.44-1.11-.66-2.01-.66-.57,0-1.12,.1-1.66,.29-.02,.33-.04,.64-.05,.92,0,.09-.02,.97-.06,2.66v4.07c0,.83,.01,1.64,.04,2.43,0,.58,.05,.92,.11,1.04,.06,.11,.16,.19,.31,.24,.14,.05,.54,.08,1.18,.1v.59c-.77-.04-1.49-.06-2.14-.06-.52,0-1.41,.02-2.64,.06v-.59c.64-.01,1.03-.04,1.18-.1,.14-.05,.24-.12,.29-.21,.07-.12,.11-.42,.12-.89,0-.13,.02-.99,.04-2.6v-4.24c0-.83-.01-1.64-.04-2.44-.02-.58-.06-.92-.12-1.03-.06-.11-.16-.19-.3-.24-.14-.05-.53-.08-1.17-.1Z"></path><path class="c" d="M169.2,15.01c0-.96,.13-1.86,.39-2.67,.26-.82,.69-1.55,1.3-2.21,.6-.66,1.28-1.15,2.04-1.48,.76-.33,1.63-.5,2.61-.5,.9,0,1.72,.14,2.47,.43,.74,.29,1.34,.66,1.82,1.13,.47,.47,.85,.98,1.12,1.53,.21,.42,.38,.91,.5,1.47,.12,.56,.18,1.16,.18,1.8,0,2.06-.62,3.77-1.86,5.14-1.24,1.37-2.81,2.05-4.69,2.05-.86,0-1.66-.16-2.41-.47-.74-.31-1.37-.77-1.89-1.39-.51-.61-.91-1.36-1.17-2.24-.27-.88-.4-1.74-.4-2.6m1.72-.76c0,.58,.05,1.17,.16,1.77,.1,.6,.24,1.11,.39,1.55,.26,.73,.61,1.35,1.03,1.84,.43,.5,.9,.86,1.42,1.1,.52,.23,1.1,.35,1.74,.35,.88,0,1.65-.24,2.3-.72,.65-.48,1.13-1.15,1.46-2.02,.32-.87,.48-1.87,.48-3.01,0-.97-.12-1.86-.35-2.68-.14-.5-.33-.95-.57-1.36-.24-.41-.51-.76-.84-1.06-.33-.3-.75-.56-1.27-.76-.52-.21-1.08-.31-1.68-.31-.87,0-1.64,.22-2.29,.65-.66,.43-1.15,1.06-1.48,1.88-.33,.82-.5,1.75-.5,2.79Z"></path><path class="c" d="M182.5,21.44v-.59c.58,0,.96-.05,1.14-.15,.08-.04,.13-.1,.16-.18,.06-.12,.1-.44,.12-.96,.02-.81,.04-1.5,.04-2.09v-7.45c0-.2-.01-.33-.03-.39-.04-.11-.14-.24-.29-.39-.1-.1-.21-.16-.34-.19-.13-.03-.41-.05-.86-.05v-.59c.94,.03,1.54,.04,1.78,.04,.41,0,.82-.01,1.23-.04,.46,.68,.8,1.18,1.01,1.5l1.68,2.33,2.45,3.33c.79,1.06,1.41,1.9,1.89,2.51,.3,.4,.56,.72,.76,.95v-6.68c0-.6-.01-1.3-.03-2.1-.02-.5-.06-.82-.11-.94-.04-.08-.1-.14-.17-.17-.18-.09-.56-.13-1.14-.14v-.59c.65,.03,1.3,.04,1.96,.04,.62,0,1.19-.01,1.7-.04v.59c-.58,0-.96,.05-1.14,.14-.08,.04-.14,.1-.17,.18-.06,.12-.09,.44-.12,.96-.02,.8-.04,1.5-.04,2.08v4.4c0,.89,.01,2.55,.04,4.99l-.85-.27-.2-.04s-.06-.03-.09-.06c-.04-.03-.14-.15-.31-.37-.46-.58-.79-1.02-1-1.32l-1.06-1.51-5.83-7.85v7.11c0,.61,.01,1.32,.04,2.14,.02,.51,.06,.83,.11,.95,.04,.09,.09,.15,.17,.19,.18,.09,.56,.13,1.14,.14v.59c-.48-.04-1.01-.06-1.59-.06-.63,0-1.32,.02-2.06,.06Z"></path><path class="c" d="M201.23,20.86v.59c-1.16-.04-1.93-.06-2.29-.06l-2.53,.06v-.59c.64-.01,1.04-.04,1.18-.1,.14-.05,.24-.12,.3-.21,.07-.12,.11-.42,.12-.89,0-.13,.02-.99,.04-2.6v-4.24c0-.83-.01-1.64-.04-2.44-.02-.58-.05-.92-.12-1.03-.06-.11-.16-.19-.3-.24-.14-.05-.53-.08-1.18-.1v-.59c1.04,.04,1.85,.06,2.42,.06s1.35-.02,2.41-.06v.59c-.65,.01-1.04,.04-1.18,.1-.14,.05-.24,.12-.29,.21-.07,.12-.11,.42-.12,.89,0,.12-.02,.99-.03,2.6v4.24c0,.83,0,1.64,.02,2.43,.02,.58,.06,.92,.12,1.03,.06,.11,.16,.19,.3,.24,.14,.05,.53,.08,1.18,.1Z"></path><path class="c" d="M213.14,19.82l-.32,.85c-.64,.36-1.27,.62-1.88,.78-.61,.16-1.28,.24-2.01,.24-.85,0-1.64-.12-2.37-.36-.73-.24-1.37-.58-1.91-1.02-.55-.44-.99-.94-1.34-1.49-.35-.55-.61-1.15-.79-1.79-.18-.64-.27-1.35-.27-2.12,0-1.95,.61-3.56,1.83-4.84,1.22-1.28,2.88-1.92,4.99-1.92,.5,0,.96,.03,1.39,.1,.42,.06,.94,.19,1.55,.37,.61,.18,.98,.29,1.12,.32-.12,.34-.21,.67-.27,.99-.09,.52-.15,1.12-.18,1.81h-.51v-1.08c-.06-.6-.36-1.04-.9-1.34-.54-.29-1.33-.44-2.38-.44-.78,.01-1.44,.12-1.98,.33-.54,.21-1.02,.54-1.44,1-.41,.45-.75,1.03-1.02,1.73-.26,.7-.4,1.58-.4,2.63,0,1.85,.51,3.34,1.52,4.46,1.02,1.13,2.35,1.69,4.02,1.69,.75,0,1.45-.12,2.09-.34,.44-.16,.87-.41,1.31-.75l.14,.19Z"></path><path class="c" d="M214.06,20.98c.09-.59,.14-1.53,.16-2.84h.54c.03,.88,.07,1.41,.14,1.57,.06,.16,.22,.33,.46,.51,.24,.18,.57,.34,.97,.49,.41,.14,.8,.21,1.18,.21,.55,0,1.07-.14,1.53-.43,.47-.28,.81-.66,1.02-1.12,.22-.46,.32-.96,.32-1.48,0-.4-.05-.75-.16-1.04-.11-.29-.27-.53-.49-.71-.22-.18-.49-.3-.81-.38-.2-.04-.61-.1-1.22-.18-.61-.09-1.13-.18-1.55-.29-.57-.19-.99-.42-1.26-.68-.27-.26-.49-.61-.65-1.03-.17-.43-.25-.88-.25-1.38,0-.72,.17-1.39,.51-2.03,.34-.64,.84-1.13,1.5-1.48,.66-.35,1.38-.53,2.15-.53,.47,0,.98,.07,1.52,.21,.55,.14,1.07,.34,1.54,.6-.08,.39-.14,.75-.17,1.08-.03,.33-.06,.82-.08,1.47h-.54c-.01-.94-.04-1.46-.07-1.55-.14-.22-.33-.42-.56-.6-.57-.36-1.16-.53-1.77-.53-.8,0-1.44,.27-1.91,.8-.48,.54-.71,1.23-.71,2.09,0,.52,.09,.92,.26,1.2,.17,.28,.47,.51,.91,.68,.3,.12,.79,.22,1.48,.33,.69,.1,1.3,.21,1.85,.33,.52,.17,.9,.38,1.14,.61,.25,.23,.45,.54,.61,.93,.16,.38,.24,.83,.24,1.34,0,1.22-.45,2.28-1.36,3.19-.91,.91-2.07,1.36-3.51,1.36-1.08,0-2.07-.24-2.95-.72Z"></path><path class="c" d="M238.1,19.82l-.32,.85c-.64,.36-1.27,.62-1.88,.78-.61,.16-1.28,.24-2.01,.24-.85,0-1.64-.12-2.37-.36-.73-.24-1.37-.58-1.91-1.02-.55-.44-.99-.94-1.34-1.49-.35-.55-.61-1.15-.79-1.79-.18-.64-.27-1.35-.27-2.12,0-1.95,.61-3.56,1.83-4.84,1.22-1.28,2.88-1.92,4.99-1.92,.5,0,.96,.03,1.39,.1,.42,.06,.94,.19,1.55,.37,.61,.18,.99,.29,1.12,.32-.12,.34-.21,.67-.27,.99-.09,.52-.15,1.12-.18,1.81h-.51v-1.08c-.07-.6-.36-1.04-.9-1.34-.54-.29-1.33-.44-2.38-.44-.78,.01-1.44,.12-1.98,.33-.55,.21-1.02,.54-1.44,1-.41,.45-.75,1.03-1.02,1.73-.26,.7-.4,1.58-.4,2.63,0,1.85,.51,3.34,1.52,4.46,1.01,1.13,2.35,1.69,4.02,1.69,.75,0,1.45-.12,2.09-.34,.44-.16,.87-.41,1.31-.75l.14,.19Z"></path><path class="c" d="M238.97,15.01c0-.96,.13-1.86,.39-2.67,.26-.82,.69-1.55,1.29-2.21,.6-.66,1.28-1.15,2.04-1.48,.76-.33,1.63-.5,2.61-.5,.9,0,1.72,.14,2.46,.43,.74,.29,1.35,.66,1.82,1.13,.47,.47,.85,.98,1.12,1.53,.21,.42,.37,.91,.5,1.47,.12,.56,.19,1.16,.19,1.8,0,2.06-.62,3.77-1.86,5.14-1.24,1.37-2.8,2.05-4.69,2.05-.86,0-1.66-.16-2.41-.47-.75-.31-1.37-.77-1.89-1.39-.51-.61-.91-1.36-1.17-2.24-.27-.88-.4-1.74-.4-2.6m1.72-.76c0,.58,.05,1.17,.16,1.77,.1,.6,.24,1.11,.4,1.55,.26,.73,.6,1.35,1.03,1.84,.42,.5,.9,.86,1.42,1.1,.52,.23,1.1,.35,1.74,.35,.88,0,1.65-.24,2.3-.72,.65-.48,1.14-1.15,1.46-2.02,.32-.87,.48-1.87,.48-3.01,0-.97-.12-1.86-.34-2.68-.14-.5-.33-.95-.57-1.36-.23-.41-.52-.76-.84-1.06-.33-.3-.75-.56-1.27-.76-.52-.21-1.08-.31-1.68-.31-.87,0-1.63,.22-2.29,.65-.66,.43-1.15,1.06-1.48,1.88-.33,.82-.5,1.75-.5,2.79Z"></path><path class="c" d="M253.9,19.35c.27,0,.51,.11,.69,.32,.19,.21,.28,.47,.28,.78s-.09,.56-.29,.77c-.19,.21-.42,.32-.69,.32s-.51-.1-.7-.32c-.19-.21-.29-.47-.29-.77s.1-.56,.29-.78c.19-.21,.42-.32,.7-.32Z"></path><path class="c" d="M255.88,24.01c.41-.77,.71-1.37,.88-1.79,.17-.42,.31-.84,.41-1.26,.05-.21,.12-.66,.2-1.35l.89-.25c.12-.04,.38-.14,.79-.3l.21,.26c-.68,1.77-1.5,3.29-2.48,4.57l-.7,.36-.21-.23Z"></path><path class="c" d="M264.36,21.44v-.47c.34-.18,.55-.32,.65-.42,.06-.05,.09-.12,.12-.21,.05-.17,.08-.54,.1-1.1,.02-.84,.03-1.34,.03-1.49v-4.93c0-.83-.01-1.64-.03-2.44-.02-.58-.06-.92-.12-1.03-.06-.11-.16-.19-.3-.24-.14-.05-.53-.08-1.18-.1v-.59c1.33,.04,2.16,.06,2.47,.06,.35,0,1.13-.02,2.35-.06v.59c-.65,.01-1.05,.04-1.19,.1-.14,.05-.24,.12-.29,.21-.07,.12-.11,.42-.12,.89,0,.12-.02,.99-.03,2.6v6.16c0,.64,.01,1.16,.03,1.57,.63,.04,1.25,.06,1.86,.06,1.55,0,2.63-.11,3.25-.33,.07-.18,.13-.39,.19-.63l.33-1.52h.54c-.12,.91-.24,1.98-.35,3.21-.22,.05-.4,.08-.53,.09-.29,.02-.72,.03-1.31,.03l-4.86-.06c-.53,0-1.06,.02-1.6,.06Z"></path><path class="c" d="M274.51,11.45h-.52c0-1.46-.04-2.47-.09-3.03,.6,.03,1.54,.07,2.82,.11,1.04,.03,1.73,.04,2.07,.04,.37,0,1.24-.02,2.6-.07,.98-.03,1.7-.06,2.15-.09-.07,.68-.12,1.7-.14,3.03h-.53l-.07-.88c-.04-.53-.07-.83-.09-.91-.02-.07-.04-.12-.07-.15-.03-.03-.08-.06-.14-.07-.08-.02-.35-.04-.82-.07-.47-.03-.85-.04-1.12-.04h-1.01c-.06,.59-.09,1.38-.09,2.37v5.36c0,.83,.01,1.64,.04,2.43,.02,.58,.05,.92,.12,1.03,.06,.11,.16,.19,.3,.24,.14,.05,.53,.08,1.17,.1v.59c-.98-.05-1.71-.08-2.21-.08-.21,0-1.07,.03-2.56,.08v-.59c.65-.01,1.05-.04,1.19-.1,.14-.05,.24-.12,.29-.21,.07-.12,.11-.42,.13-.89,0-.13,.01-.99,.04-2.6v-5.34c0-.26,0-.54-.02-.84l-.05-1.55h-1.22c-.7,0-1.26,.03-1.68,.09-.13,.02-.22,.06-.25,.12-.06,.1-.12,.44-.16,1l-.09,.93Z"></path><path class="c" d="M284.65,21.44v-.44c.31-.2,.58-.39,.79-.55,.03-.41,.06-.99,.08-1.73,.04-1.26,.06-2.13,.06-2.62v-3.73c0-.6-.01-1.3-.04-2.1-.02-.51-.06-.82-.12-.94-.04-.08-.1-.14-.17-.17-.18-.09-.56-.13-1.13-.14v-.59c.8,.03,1.5,.04,2.12,.04,.47,0,1.11,0,1.92-.03,.81-.02,1.44-.03,1.89-.03,1.34,0,2.42,.19,3.23,.57,.82,.38,1.51,1.02,2.08,1.92,.57,.9,.85,1.99,.85,3.29,0,.93-.14,1.8-.4,2.61-.27,.81-.63,1.52-1.09,2.13-.46,.61-.95,1.09-1.48,1.44-.53,.35-1.08,.62-1.65,.8-.58,.18-1.37,.27-2.37,.27-.33,0-.79,0-1.35-.03-.74-.02-1.23-.03-1.46-.03-.33,0-.92,.02-1.76,.06m2.54-1c.6,.12,1.24,.18,1.9,.18s1.3-.07,1.82-.2c.53-.13,.98-.32,1.35-.57,.37-.24,.74-.6,1.09-1.08,.35-.48,.62-1.09,.81-1.83,.19-.74,.28-1.51,.28-2.3,0-1.14-.18-2.11-.55-2.93-.36-.82-.91-1.44-1.64-1.87-.73-.44-1.74-.65-3.02-.65-.67,0-1.36,.06-2.05,.18-.02,.3-.03,.83-.04,1.59l-.03,1.33v3.66l.02,2.84c0,.43,.02,.99,.05,1.67Z"></path><path class="c" d="M299.02,19.35c.27,0,.51,.11,.69,.32,.19,.21,.28,.47,.28,.78s-.1,.56-.29,.77c-.19,.21-.42,.32-.69,.32s-.51-.1-.7-.32c-.19-.21-.29-.47-.29-.77s.09-.56,.29-.78c.19-.21,.42-.32,.7-.32Z"></path></g></svg> 