<?xml version="1.0" encoding="UTF-8"?> <svg xmlns="http://www.w3.org/2000/svg" id="Layer_1" data-name="Layer 1" viewBox="0 0 177.53 210.71"><defs><style> .cls-1 { stroke: #939598; } .cls-1, .cls-2 { fill: none; stroke-linecap: round; stroke-linejoin: round; stroke-width: 5px; } .cls-2 { stroke: red; } </style></defs><path class="cls-2" d="m88.76,95.4c-15.2,9.12-24.85,1.53-26.34.2l-.2-.2.2.2c9.49,9.62,12.87,28.43,13.07,74.25"></path><path class="cls-2" d="m88.76,95.4c15.2,9.12,24.85,1.53,26.34.2l.2-.2-.2.2c-9.56,9.69-12.91,28.56-13.07,74.94"></path><path class="cls-1" d="m113.46,169.68s1.85-15.64,19.9-41.25c8.13-11.55,15.13-24.42,15.13-39.68,0-35.24-30.52-63.34-66.55-59.32-27.77,3.09-50,25.78-52.62,53.58-1.66,17.58,5.09,33.11,15.06,45.62,7.89,9.9,17.14,30.61,18.5,41.56"></path><path class="cls-1" d="m110.96,169.89c-5.45.88-13.35,1.82-22.19,1.82s-16.74-.94-22.19-1.82c-4.03-.65-7.67,2.47-7.67,6.55v6.45c0,3.2,2.28,5.96,5.43,6.53.26.05.56.1.84.14-1.75,1.29-2.95,3.45-2.95,5.99v3.16c0,3.5,2.28,6.48,5.43,7.13,5.09,1.05,13.1,2.37,21.12,2.37s16.03-1.32,21.12-2.37c3.15-.65,5.43-3.63,5.43-7.13v-3.16c0-2.54-1.2-4.7-2.95-5.99.28-.05.58-.1.84-.14,3.15-.56,5.43-3.33,5.43-6.53v-6.45c0-4.08-3.64-7.2-7.67-6.55Z"></path><path class="cls-1" d="m72.18,190.59c-3.06-.37-5.72-.79-7.84-1.17-3.15-.56-5.43-3.33-5.43-6.53v-6.45c0-4.08,3.64-7.2,7.67-6.55,5.45.88,13.35,1.82,22.19,1.82s16.74-.94,22.19-1.82c4.03-.65,7.67,2.47,7.67,6.55v6.45c0,3.2-2.28,5.96-5.43,6.53-2.12.38-4.78.8-7.84,1.17"></path><line class="cls-1" x1="88.76" y1="12.45" x2="88.76" y2="2.5"></line><line class="cls-1" x1="35.99" y1="32.67" x2="28.95" y2="25.64"></line><line class="cls-1" x1="12.45" y1="85.45" x2="2.5" y2="85.45"></line><line class="cls-1" x1="141.49" y1="32.72" x2="148.53" y2="25.68"></line><line class="cls-1" x1="165.08" y1="85.45" x2="175.03" y2="85.45"></line></svg> 