<?xml version="1.0" encoding="UTF-8"?> <svg xmlns="http://www.w3.org/2000/svg" id="Layer_1" data-name="Layer 1" viewBox="0 0 170.6 210.71"><defs><style> .cls-1 { stroke: #939598; } .cls-1, .cls-2 { fill: none; stroke-linecap: round; stroke-linejoin: round; stroke-width: 5px; } .cls-2 { stroke: red; } </style></defs><polyline class="cls-1" points="134.72 129.65 168.1 184.72 136.87 179.56 125.7 208.21 94.17 157.2"></polyline><polyline class="cls-1" points="76.28 156.74 45.19 208.21 34.63 180.42 2.5 183.71 33.23 128.99"></polyline><circle class="cls-1" cx="84.91" cy="83.68" r="46.99" transform="translate(-34.3 84.55) rotate(-45)"></circle><path class="cls-2" d="m165.9,82.53c.23,7.76-11.78,9.17-13.94,19.86-1.98,9.77,6.61,15.68,3.25,21.01-3.5,5.55-13.36.06-20.49,6.25-7.98,6.94-2.27,19.64-9.12,23.55-5.99,3.42-11.87-5.45-21.68-3.02-10.43,2.58-11.7,14.56-19,14.29-7-.25-7.39-11.31-16.86-14.18-10.03-3.03-17.24,7.06-23.45,3.29-6.19-3.76-.55-14.74-7.65-21.96-7.41-7.54-19.66-1.77-23.1-8.03-3.14-5.71,6.42-11.64,4.4-21.42-2.05-9.96-13.5-11.23-13.38-18.69.12-7.49,11.72-8.43,13.94-18.29,2.14-9.45-7.02-15.28-3.82-21.06,3.36-6.08,14.19-.9,21.33-7.92,7.67-7.55,1.8-20.07,8.11-23.49,5.7-3.09,11.63,6.52,21.2,4.52,10.22-2.14,11.43-14.76,19.07-14.74,7.57.01,8.63,12.4,18.79,14.74,10.14,2.34,17.22-8.11,22.85-4.62,5.36,3.32-.27,13.28,5.9,20.67,7,8.38,20.56,3.15,23.7,9.89,2.7,5.79-6.68,10.94-5.06,20.02,1.8,10.11,14.76,11.29,15,19.33Z"></path><polyline class="cls-2" points="61.52 85.37 79 101.99 108.22 73.91"></polyline></svg> 