<?xml version="1.0" encoding="UTF-8"?> <svg xmlns="http://www.w3.org/2000/svg" id="Layer_1" data-name="Layer 1" viewBox="0 0 210.71 210.71"><defs><style> .cls-1 { stroke: #939598; } .cls-1, .cls-2 { fill: none; stroke-linecap: round; stroke-linejoin: round; stroke-width: 5px; } .cls-2 { stroke: red; } </style></defs><circle class="cls-2" cx="105.35" cy="24.86" r="22.36"></circle><path class="cls-2" d="m149.88,103.25l-3.95-17.13c-2.81-12.17-13.65-20.8-26.14-20.8h-28.86c-12.49,0-23.34,8.62-26.14,20.8l-3.95,17.12"></path><path class="cls-1" d="m42.75,194.79v-7.92l-33.24-39.55c-1.88-2.24-3.42-4.74-4.58-7.43h0c-1.6-3.72-2.42-7.73-2.42-11.78v-30.44c0-.99.06-1.98.19-2.97h0c.31-2.34.99-4.62,2.01-6.76l12-25c1.07-2.23,3.74-3.17,5.97-2.1l4.64,2.23c5.87,2.82,8.87,9.45,7.11,15.72l-4.75,16.9v5.78"></path><path class="cls-1" d="m82.99,194.79v-40.25c-.47-6.16-2.05-12.2-6.76-16.92l-32.88-32.88c-5.24-5.24-13.73-5.24-18.97,0h0c-5.24,5.24-5.24,13.73,0,18.97l18.12,18.12"></path><path class="cls-1" d="m167.96,194.79v-7.92l33.24-39.55c1.88-2.24,3.42-4.74,4.58-7.43h0c1.6-3.72,2.42-7.73,2.42-11.78v-30.44c0-.99-.06-1.98-.19-2.97h0c-.31-2.34-.99-4.62-2.01-6.76l-12-25c-1.07-2.23-3.74-3.17-5.97-2.1l-4.64,2.23c-5.87,2.82-8.87,9.45-7.11,15.72l4.75,16.9v5.78"></path><path class="cls-1" d="m127.71,194.79v-40.25c.47-6.16,2.05-12.2,6.76-16.92l32.88-32.88c5.24-5.24,13.73-5.24,18.97,0h0c5.24,5.24,5.24,13.73,0,18.97l-18.12,18.12"></path><polyline class="cls-1" points="118.77 208.21 118.77 194.79 181.38 194.79 181.38 208.21"></polyline><polyline class="cls-1" points="29.33 208.21 29.33 194.79 91.94 194.79 91.94 208.21"></polyline></svg> 