<?xml version="1.0" encoding="UTF-8"?> <svg xmlns="http://www.w3.org/2000/svg" id="Layer_1" data-name="Layer 1" viewBox="0 0 197.31 210.71"><defs><style> .cls-1 { stroke: #939598; } .cls-1, .cls-2 { fill: none; stroke-linecap: round; stroke-linejoin: round; stroke-width: 5px; } .cls-2 { stroke: red; } </style></defs><g><g><path class="cls-1" d="m112.41,119.03s7.81-7.13,5.34-30.35c-2.47-23.22-23.23-14.87-23.23-14.87,2.01,35.32-15.9,47-23.36,50.77-1.96.99-3.71,2.35-5.13,4.02l-7.62,8.97h-13.76"></path><path class="cls-1" d="m99.19,119.03h44.86c5.29,0,9.58,4.29,9.58,9.58v65.48c0,5.29-4.29,9.58-9.58,9.58h-44.3c-3.32,0-6.58-.83-9.5-2.42h0c-2.91-1.59-6.18-2.42-9.5-2.42h-36.02"></path></g><rect class="cls-1" x="8.45" y="121.42" width="35.85" height="86.79" rx="13.72" ry="13.72"></rect></g><g><polygon class="cls-2" points="26.61 43.99 33.8 59.21 50.72 61.51 38.24 72.88 41.51 89.85 26.61 81.33 11.71 89.85 14.99 72.88 2.5 61.51 19.43 59.21 26.61 43.99"></polygon><polygon class="cls-2" points="170.7 43.99 177.88 59.21 194.81 61.51 182.33 72.88 185.6 89.85 170.7 81.33 155.8 89.85 159.07 72.88 146.59 61.51 163.51 59.21 170.7 43.99"></polygon><polygon class="cls-2" points="98.66 2.5 105.84 17.72 122.77 20.02 110.28 31.39 113.56 48.36 98.66 39.84 83.75 48.36 87.03 31.39 74.54 20.02 91.47 17.72 98.66 2.5"></polygon></g></svg> 